<?xml version="1.0" encoding="UTF-8" standalone="no"?>
<!-- Created with Inkscape (http://www.inkscape.org/) -->

<svg
   width="282.99985mm"
   height="155.91403mm"
   viewBox="0 0 282.99985 155.91404"
   version="1.1"
   id="svg5"
   xmlns="http://www.w3.org/2000/svg"
   xmlns:svg="http://www.w3.org/2000/svg">
  <defs
     id="defs2" />
  <g
     id="layer1"
     transform="translate(-33.500001,-202.65794)">
    <path
       style="fill:none;stroke:#000000;stroke-width:3;stroke-linecap:round;stroke-linejoin:round;stroke-dasharray:none;stroke-opacity:1;paint-order:stroke markers fill"
       d="M 35.000001,244.99999 H 175 l -5.53469,-40.84217 145.5347,75.84217 -146.76463,77.0721 L 175,314.99999 H 35.000001"
       id="path1" />
    <path
       style="fill:none;stroke:#000000;stroke-width:3;stroke-linecap:round;stroke-linejoin:round;stroke-dasharray:none;stroke-opacity:1;paint-order:stroke markers fill"
       d="m 35.000001,300.43273 13.999995,14.56725 -13.999995,-22.25432 20.999995,22.25432 -20.999999,-35 27.999999,35 -27.999995,-40.3958 34.999995,40.3958 -34.999995,-55.15497 41.999995,55.15497 -41.999995,-63.45701 48.999994,63.45701 -41.999998,-69.99999 48.999998,69.99999 -34.999999,-62.99999 41.999999,62.99999 -34.999999,-69.99999 41.999994,69.99999 -34.999994,-69.99999 42.235374,63.23537 -35.235374,-63.23537 48.999994,69.99999 -41.999995,-69.99999 48.999995,69.99999 -34.999995,-69.99999 36.465305,62.07754 -29.46531,-62.07754 42,69.99999 -35,-69.99999 42,69.99999 -28,-62.99999 35,62.99999 -28,-69.99999 35,69.99999 -28,-69.99999 57.22993,94.68978 -20.55286,-23.8829 12.32293,27.19311 -14,-14 7.30748,19.22721 -10.38231,-5.22721 0.51963,9.42706"
       id="path3" />
    <path
       style="fill:none;stroke:#000000;stroke-width:3;stroke-linecap:round;stroke-linejoin:round;stroke-dasharray:none;stroke-opacity:1;paint-order:stroke markers fill"
       d="m 202.99999,335.99998 -56,-90.99999 64.53741,86.45985 -57.53741,-86.45985 63.61497,83.41366 -49.61497,-83.41366 56.92245,80.07482 -49.92245,-80.07482 56,76.99999 -56,-90.99999 62.38503,86.45985 -64.09027,-99.12501 71.70524,96.66515 -70,-104.99999 75.46259,99.84489 -60.61224,-94.45441 69.14965,92.60951 -52.38231,-82.53468 59.38231,75.53468 -45.68979,-69.45713 52.68979,66.12253 -36.2913,-56.31636 42.12513,52.65167 -27.75628,-43.8456 35.92245,43.84489 -21,-34.99999 28,27.99999 -14,-20.99999 21,17.82867 -7,-10.82867 13.12224,7"
       id="path4" />
  </g>
</svg>
