<?xml version="1.0" encoding="UTF-8" standalone="no"?>
<!-- Created with Inkscape (http://www.inkscape.org/) -->

<svg
   width="107.99999mm"
   height="108.07908mm"
   viewBox="0 0 107.99999 108.07908"
   version="1.1"
   id="svg5"
   xmlns="http://www.w3.org/2000/svg"
   xmlns:svg="http://www.w3.org/2000/svg">
  <defs
     id="defs2" />
  <g
     id="layer1"
     transform="translate(-68.499996,-243.49999)">
    <path
       style="fill:none;stroke:#000000;stroke-width:3;stroke-linecap:round;stroke-linejoin:round;stroke-dasharray:none;stroke-opacity:1"
       d="m 69.999996,244.99999 v 90.99999 l 90.999994,1e-5 v -91 z"
       id="path9" />
    <path
       style="fill:none;stroke:#000000;stroke-width:3;stroke-linecap:round;stroke-linejoin:round;stroke-dasharray:none;stroke-opacity:1"
       d="m 83.841486,343.15372 c 7.415351,7.10031 0,0 7.15851,6.84627 l -7.057828,-12.5 14.057828,12.5 -7,-14 14.467064,14 -7.467064,-14 14.424604,14 -7.4246,-14 13.72987,14 -6.72987,-14 14.33968,14 -7.33968,-14 14,14 -7,-14 14,14 -7,-14 14.2123,14 -7.2123,-14 14,14 -7,-14 14.12738,14 -7.12738,-14 13.65007,14 -6.65008,-14 14,14 -12.5,-21.67148 12.49993,13.91508 -12.49993,-21.30747 12.49993,14.56735 -13.99993,-20.50348 13.99993,13.54594 -13.99993,-20.54594 14,14 -14,-21 13.99993,14.28313 -13.99993,-21.28313 14,14 -14,-21 13.99993,13.49836 -13.99993,-20.49836 14,14 -14,-21 14,14 -14,-21 14,14 -14,-21 14,14 -7,-14 6.99993,7.58035 7e-5,-7.58035"
       id="path10" />
    <path
       style="fill:none;stroke:#000000;stroke-width:3;stroke-linecap:butt;stroke-linejoin:miter;stroke-dasharray:none;stroke-opacity:1"
       d="m 160.99999,258.99999 h 14 l -7e-5,90.9422 -91.081563,0.13467 -0.07687,-14.07687"
       id="path11" />
  </g>
</svg>
