<?xml version="1.0" encoding="UTF-8" standalone="no"?>
<!-- Created with Inkscape (http://www.inkscape.org/) -->

<svg
   width="176.13803mm"
   height="85.012108mm"
   viewBox="0 0 176.13804 85.012108"
   version="1.1"
   id="svg1"
   xmlns="http://www.w3.org/2000/svg"
   xmlns:svg="http://www.w3.org/2000/svg">
  <defs
     id="defs1" />
  <path
     style="fill:none;stroke:#000000;stroke-width:8;stroke-linecap:round;stroke-linejoin:round;stroke-dasharray:none;stroke-opacity:1"
     d="M 4,4 C 4.06134,15.7449 4.122677,27.4898 4.184015,39.2347"
     id="path2" />
  <path
     style="fill:none;stroke:#000000;stroke-width:8;stroke-linecap:round;stroke-linejoin:round;stroke-dasharray:none;stroke-opacity:1"
     d="m 18.556693,4 c 0.06134,11.7449 0.122677,23.4898 0.184015,35.2347"
     id="path2-5" />
  <path
     style="fill:none;stroke:#000000;stroke-width:8;stroke-linecap:round;stroke-linejoin:round;stroke-dasharray:none;stroke-opacity:1"
     d="m 32.173793,4 c 0.06134,11.7449 0.122677,23.4898 0.184015,35.2347"
     id="path2-5-7" />
  <path
     style="fill:none;stroke:#000000;stroke-width:8;stroke-linecap:round;stroke-linejoin:round;stroke-dasharray:none;stroke-opacity:1"
     d="m 45.771376,4.184017 c 11.7449,-0.06134 23.4898,-0.122677 35.2347,-0.184015"
     id="path2-5-6" />
  <path
     style="fill:none;stroke:#000000;stroke-width:8;stroke-linecap:round;stroke-linejoin:round;stroke-dasharray:none;stroke-opacity:1"
     d="m 45.771373,16.9675 c 11.7449,-0.06134 23.4898,-0.122677 35.2347,-0.184015"
     id="path2-5-6-9" />
  <path
     style="fill:none;stroke:#000000;stroke-width:8;stroke-linecap:round;stroke-linejoin:round;stroke-dasharray:none;stroke-opacity:1"
     d="m 45.771371,31.992562 c 11.7449,-0.06134 23.4898,-0.122677 35.2347,-0.184015"
     id="path2-5-6-5" />
  <path
     style="fill:none;stroke:#000000;stroke-width:8;stroke-linecap:round;stroke-linejoin:round;stroke-dasharray:none;stroke-opacity:1"
     d="m 95.131972,4 c 0.06134,11.7449 0.122677,23.4898 0.184015,35.2347"
     id="path2-1" />
  <path
     style="fill:none;stroke:#000000;stroke-width:8;stroke-linecap:round;stroke-linejoin:round;stroke-dasharray:none;stroke-opacity:1"
     d="m 109.68867,4 c 0.0613,11.7449 0.12267,23.4898 0.18401,35.2347"
     id="path2-5-2" />
  <path
     style="fill:none;stroke:#000000;stroke-width:8;stroke-linecap:round;stroke-linejoin:round;stroke-dasharray:none;stroke-opacity:1"
     d="m 123.30577,4 c 0.0613,11.7449 0.12267,23.4898 0.18401,35.2347"
     id="path2-5-7-9" />
  <path
     style="fill:none;stroke:#000000;stroke-width:8;stroke-linecap:round;stroke-linejoin:round;stroke-dasharray:none;stroke-opacity:1"
     d="m 4.000005,53.20356 c 11.7449,-0.06134 23.4898,-0.122677 35.2347,-0.184015"
     id="path2-5-6-1" />
  <path
     style="fill:none;stroke:#000000;stroke-width:8;stroke-linecap:round;stroke-linejoin:round;stroke-dasharray:none;stroke-opacity:1"
     d="m 4.000002,65.987043 c 11.7449,-0.06134 23.4898,-0.122677 35.2347,-0.184015"
     id="path2-5-6-9-0" />
  <path
     style="fill:none;stroke:#000000;stroke-width:8;stroke-linecap:round;stroke-linejoin:round;stroke-dasharray:none;stroke-opacity:1"
     d="M 4,81.012105 C 15.7449,80.950765 27.4898,80.889428 39.2347,80.82809"
     id="path2-5-6-5-6" />
  <path
     style="fill:none;stroke:#000000;stroke-width:8;stroke-linecap:round;stroke-linejoin:round;stroke-dasharray:none;stroke-opacity:1"
     d="m 52.648263,45.777405 c 0.06134,11.7449 0.122677,23.4898 0.184015,35.2347"
     id="path2-1-2" />
  <path
     style="fill:none;stroke:#000000;stroke-width:8;stroke-linecap:round;stroke-linejoin:round;stroke-dasharray:none;stroke-opacity:1"
     d="m 67.204956,45.777405 c 0.06134,11.7449 0.122677,23.4898 0.184015,35.2347"
     id="path2-5-2-0" />
  <path
     style="fill:none;stroke:#000000;stroke-width:8;stroke-linecap:round;stroke-linejoin:round;stroke-dasharray:none;stroke-opacity:1"
     d="m 80.822056,45.777405 c 0.06134,11.7449 0.122677,23.4898 0.184015,35.2347"
     id="path2-5-7-9-6" />
  <path
     style="fill:none;stroke:#000000;stroke-width:8;stroke-linecap:round;stroke-linejoin:round;stroke-dasharray:none;stroke-opacity:1"
     d="M 94.739533,53.20356 C 106.48443,53.14222 118.22933,53.080883 129.97423,53.019545"
     id="path2-5-6-3" />
  <path
     style="fill:none;stroke:#000000;stroke-width:8;stroke-linecap:round;stroke-linejoin:round;stroke-dasharray:none;stroke-opacity:1"
     d="m 94.73953,65.987043 c 11.7449,-0.06134 23.4898,-0.122677 35.2347,-0.184015"
     id="path2-5-6-9-7" />
  <path
     style="fill:none;stroke:#000000;stroke-width:8;stroke-linecap:round;stroke-linejoin:round;stroke-dasharray:none;stroke-opacity:1"
     d="m 94.73953,81.012107 c 11.7449,-0.06134 23.4898,-0.122677 35.2347,-0.184015"
     id="path2-5-6-5-4" />
  <path
     style="fill:none;stroke:#000000;stroke-width:8;stroke-linecap:round;stroke-linejoin:round;stroke-dasharray:none;stroke-opacity:1"
     d="m 136.71933,4.184018 c 11.7449,-0.06134 23.4898,-0.122677 35.2347,-0.184015"
     id="path2-5-6-8" />
  <path
     style="fill:none;stroke:#000000;stroke-width:8;stroke-linecap:round;stroke-linejoin:round;stroke-dasharray:none;stroke-opacity:1"
     d="m 136.71933,16.967499 c 11.7449,-0.06134 23.4898,-0.122677 35.2347,-0.184015"
     id="path2-5-6-9-4" />
  <path
     style="fill:none;stroke:#000000;stroke-width:8;stroke-linecap:round;stroke-linejoin:round;stroke-dasharray:none;stroke-opacity:1"
     d="m 136.71933,31.992566 c 11.7449,-0.06134 23.4898,-0.122677 35.2347,-0.184015"
     id="path2-5-6-5-3" />
  <path
     style="fill:none;stroke:#000000;stroke-width:8;stroke-linecap:round;stroke-linejoin:round;stroke-dasharray:none;stroke-opacity:1"
     d="m 143.78023,45.777405 c 0.0613,11.7449 0.12268,23.4898 0.18401,35.2347"
     id="path2-1-2-4" />
  <path
     style="fill:none;stroke:#000000;stroke-width:8;stroke-linecap:round;stroke-linejoin:round;stroke-dasharray:none;stroke-opacity:1"
     d="m 158.33692,45.777405 c 0.0613,11.7449 0.12268,23.4898 0.18402,35.2347"
     id="path2-5-2-0-9" />
  <path
     style="fill:none;stroke:#000000;stroke-width:8;stroke-linecap:round;stroke-linejoin:round;stroke-dasharray:none;stroke-opacity:1"
     d="m 171.95402,45.777405 c 0.0613,11.7449 0.12268,23.4898 0.18401,35.2347"
     id="path2-5-7-9-6-2" />
</svg>
